<svg width="27" height="28" fill="none" xmlns="http://www.w3.org/2000/svg"><g clip-path="url(#clip0_34_87)"><path d="M13.5 28C20.956 28 27 21.732 27 14S20.956 0 13.5 0 0 6.268 0 14s6.044 14 13.5 14z" fill="#039BE5"/><path d="M6.177 13.697l13.017-5.205c.604-.226 1.131.153.936 1.1l-2.215 10.827c-.165.768-.605.954-1.22.593l-3.375-2.58-1.628 1.627c-.18.186-.332.344-.68.344l.24-3.562 6.254-5.86c.272-.249-.06-.389-.42-.142l-7.73 5.047-3.332-1.077c-.723-.239-.739-.75.153-1.112z" fill="#fff"/></g><defs><clipPath id="clip0_34_87"><path fill="#fff" d="M0 0h27v28H0z"/></clipPath></defs></svg>