<svg width="27" height="28" fill="none" xmlns="http://www.w3.org/2000/svg"><g clip-path="url(#clip0_34_90)"><path d="M27 14.5v-1C27 6.044 20.956 0 13.5 0S0 6.044 0 13.5v1C0 21.956 6.044 28 13.5 28S27 21.956 27 14.5z" fill="#7D3DAF"/><path d="M21.123 9.986l-.004-.019c-.373-1.564-2.056-3.243-3.6-3.592L17.5 6.37a19.308 19.308 0 00-7.532 0l-.018.004c-1.545.349-3.227 2.028-3.6 3.592l-.005.02a15.841 15.841 0 000 6.585l.004.02c.358 1.497 1.915 3.099 3.403 3.54v1.746c0 .632.742.943 1.165.486l1.706-1.839a19.151 19.151 0 004.877-.337l.017-.004c1.545-.35 3.228-2.028 3.6-3.593l.006-.019a15.84 15.84 0 000-6.586zm-1.35 6.27c-.249 1.02-1.526 2.29-2.541 2.524a18.007 18.007 0 01-4.007.335.093.093 0 00-.07.03l-1.246 1.326-1.325 1.41c-.097.105-.268.034-.268-.11v-2.894a.099.099 0 00-.078-.097c-1.016-.235-2.293-1.504-2.542-2.525a14.376 14.376 0 010-5.952c.25-1.02 1.526-2.29 2.542-2.524a17.982 17.982 0 016.994 0c1.015.235 2.292 1.504 2.541 2.524a14.36 14.36 0 010 5.952z" fill="#fff"/><path d="M15.943 17.59c-.156-.048-.305-.081-.443-.14-1.431-.616-2.748-1.41-3.792-2.628-.593-.693-1.057-1.475-1.45-2.302-.186-.392-.343-.8-.503-1.205-.145-.37.07-.751.295-1.03a2.34 2.34 0 01.781-.608c.231-.115.459-.048.627.154.365.439.7.9.97 1.408.167.313.121.695-.18.908-.074.052-.141.113-.21.171a.7.7 0 00-.157.172.487.487 0 00-.03.415c.372 1.061 1 1.887 2.03 2.331.165.071.33.154.52.131.319-.038.422-.4.645-.59.218-.184.496-.186.73-.032.236.154.463.32.69.486.221.164.442.325.647.512.197.18.265.416.154.66-.203.447-.498.819-.924 1.056-.12.067-.265.089-.4.132.135-.043-.156-.05 0 0zm-2.204-8.424c1.871.055 3.409 1.343 3.738 3.262.057.327.077.661.102.993.01.14-.066.273-.211.274-.15.002-.218-.128-.228-.268-.019-.276-.032-.553-.07-.827-.193-1.446-1.305-2.643-2.693-2.9-.209-.038-.422-.048-.634-.071-.134-.015-.309-.023-.338-.196-.025-.144.092-.26.225-.267.036-.002.072 0 .109 0 1.871.055-.037 0 0 0z" fill="#fff"/><path d="M16.583 12.99c-.003.025-.004.082-.018.135-.05.195-.335.22-.4.023a.608.608 0 01-.023-.188 2.42 2.42 0 00-.286-1.18 2.152 2.152 0 00-.888-.863 2.49 2.49 0 00-.708-.225c-.107-.019-.214-.03-.322-.045-.13-.019-.199-.105-.193-.238.006-.124.094-.213.225-.206.43.026.844.122 1.226.332.777.426 1.22 1.1 1.35 1.998.006.041.015.081.018.122l.02.336c-.004.024-.008-.134 0 0z" fill="#fff"/><path d="M15.42 12.944c-.158.002-.241-.088-.258-.236-.01-.104-.02-.21-.044-.31a.876.876 0 00-.31-.506.798.798 0 00-.253-.126c-.115-.035-.234-.025-.349-.054-.124-.032-.193-.136-.173-.258a.226.226 0 01.237-.187c.726.054 1.244.443 1.318 1.33a.592.592 0 01-.002.188c-.023.102-.096.153-.167.159.071-.006-.157.002 0 0z" fill="#fff"/></g><defs><clipPath id="clip0_34_90"><path fill="#fff" d="M0 0h27v28H0z"/></clipPath></defs></svg>