<svg width="20" height="22" fill="none" xmlns="http://www.w3.org/2000/svg"><path d="M19.553 5.169l-.006-.025C19.064 3.115 16.889.938 14.89.486L14.87.48a24.893 24.893 0 00-9.738 0l-.023.005C3.111.938.936 3.116.453 5.144l-.006.025a20.596 20.596 0 000 8.539l.006.024c.462 1.942 2.475 4.02 4.399 4.59v2.265c0 .82.96 1.222 1.506.63l2.206-2.384a24.988 24.988 0 006.305-.437l.022-.005c1.998-.453 4.173-2.63 4.656-4.659l.006-.024a20.596 20.596 0 000-8.54zm-1.746 8.128c-.322 1.323-1.974 2.968-3.286 3.273a23.21 23.21 0 01-5.18.435.12.12 0 00-.091.038l-1.61 1.72-1.714 1.828c-.125.136-.345.044-.345-.144v-3.75a.128.128 0 00-.101-.127h-.001c-1.313-.305-2.964-1.95-3.287-3.273a18.691 18.691 0 010-7.718c.323-1.323 1.974-2.968 3.287-3.272 3-.594 6.042-.594 9.042 0 1.313.304 2.964 1.949 3.286 3.272a18.69 18.69 0 010 7.718z" fill="#fff"/><path d="M12.855 15.028c-.202-.063-.394-.106-.573-.183-1.85-.799-3.553-1.829-4.902-3.407-.767-.898-1.367-1.912-1.875-2.984-.24-.51-.443-1.038-.65-1.563-.188-.479.09-.974.382-1.334a3.027 3.027 0 011.01-.79c.298-.148.592-.062.81.2.471.57.904 1.167 1.254 1.826.216.406.157.901-.234 1.177-.095.067-.181.146-.27.222a.906.906 0 00-.203.223.633.633 0 00-.04.537c.482 1.377 1.294 2.447 2.626 3.023.213.093.427.2.673.17.41-.05.544-.519.832-.764.282-.24.642-.243.945-.043.304.2.598.414.89.63.287.214.573.422.838.664.254.233.342.54.199.856-.263.58-.645 1.061-1.196 1.37-.155.086-.34.114-.516.17.175-.056-.202-.064 0 0zm-2.85-10.923c2.42.07 4.408 1.74 4.834 4.23.072.423.098.857.13 1.287.014.181-.084.353-.272.355-.194.003-.281-.166-.294-.347-.025-.358-.042-.718-.09-1.073-.25-1.875-1.688-3.426-3.482-3.759-.27-.05-.547-.063-.82-.093-.173-.019-.4-.03-.438-.253-.032-.188.12-.337.292-.347.046-.002.093 0 .14 0 2.42.07-.047 0 0 0z" fill="#fff"/><path d="M13.683 9.064c-.004.031-.006.105-.024.174-.064.253-.432.285-.517.03a.789.789 0 01-.03-.243c0-.534-.112-1.066-.37-1.53a2.783 2.783 0 00-1.148-1.12 3.21 3.21 0 00-.915-.292c-.138-.024-.277-.038-.416-.058-.168-.024-.257-.136-.25-.308.008-.161.121-.277.29-.267.556.033 1.092.157 1.586.43 1.004.552 1.578 1.425 1.745 2.59.008.054.02.106.024.159.01.13.015.262.025.435-.004.031-.01-.173 0 0z" fill="#fff"/><path d="M12.178 9.002c-.203.004-.311-.112-.332-.305-.015-.135-.026-.271-.057-.402a1.137 1.137 0 00-.401-.655 1.031 1.031 0 00-.327-.165c-.149-.044-.303-.032-.451-.07a.287.287 0 01-.225-.333.293.293 0 01.307-.243c.938.07 1.609.575 1.704 1.723.007.081.015.167-.002.245-.03.132-.124.199-.216.205.092-.006-.203.004 0 0z" fill="#fff"/></svg>